<svg width="32" height="32" viewBox="0 0 32 32" xmlns="http://www.w3.org/2000/svg">
<path d="M29.1449 4.66926C27.3008 2.82511 24.8489 1.80957 22.2409 1.80957C19.9344 1.80957 17.7499 2.60405 16 4.06334C14.2501 2.60405 12.0656 1.80957 9.75911 1.80957C7.15112 1.80957 4.69923 2.82517 2.85508 4.66926C-0.951693 8.4761 -0.951693 14.6704 2.85508 18.4773L13.5612 29.1834C14.2107 29.8328 15.0768 30.1904 16 30.1904C16.9233 30.1904 17.7893 29.8328 18.4388 29.1834L29.1449 18.4773C32.9517 14.6704 32.9517 8.47603 29.1449 4.66926ZM27.8187 17.1511L17.1126 27.8571C16.8174 28.1523 16.4223 28.3149 16 28.3149C15.5777 28.3149 15.1826 28.1523 14.8874 27.8572L4.18133 17.1512C1.10583 14.0754 1.10583 9.07102 4.18127 5.99545C5.6712 4.50553 7.65213 3.68504 9.75911 3.68504C11.8661 3.68504 13.847 4.50553 15.3369 5.99539C15.703 6.36162 16.2968 6.36162 16.6631 5.99539C18.153 4.50546 20.1339 3.68498 22.241 3.68498C24.348 3.68498 26.3289 4.50546 27.8188 5.99533C30.8942 9.07102 30.8942 14.0754 27.8187 17.1511Z" fill="#46474C"/>
</svg>
