<svg width="32" height="32" viewBox="0 0 32 32" fill="none" xmlns="http://www.w3.org/2000/svg">
<path d="M3.92992 22.66L5.63992 20.2C5.87334 19.8656 5.99896 19.4678 5.99992 19.06V12C5.99992 9.34784 7.05349 6.8043 8.92886 4.92893C10.8042 3.05357 13.3478 2 15.9999 2C18.6521 2 21.1956 3.05357 23.071 4.92893C24.9464 6.8043 25.9999 9.34784 25.9999 12V19.06C26.0009 19.4678 26.1265 19.8656 26.3599 20.2L28.0699 22.66C28.3288 22.9469 28.4991 23.3026 28.5601 23.6842C28.6211 24.0658 28.5703 24.4569 28.4137 24.8102C28.2572 25.1636 28.0016 25.464 27.6779 25.6751C27.3543 25.8862 26.9764 25.9991 26.5899 26H20.8999C20.6704 27.1303 20.0572 28.1465 19.1642 28.8764C18.2712 29.6063 17.1533 30.005 15.9999 30.005C14.8466 30.005 13.7287 29.6063 12.8357 28.8764C11.9427 28.1465 11.3294 27.1303 11.0999 26H5.40992C5.02348 25.9991 4.64557 25.8862 4.3219 25.6751C3.99824 25.464 3.74267 25.1636 3.58612 24.8102C3.42956 24.4569 3.37871 24.0658 3.43973 23.6842C3.50074 23.3026 3.671 22.9469 3.92992 22.66ZM15.9999 28C16.6189 27.9983 17.2221 27.8051 17.727 27.4471C18.2319 27.089 18.6136 26.5835 18.8199 26H13.1799C13.3862 26.5835 13.768 27.089 14.2729 27.4471C14.7777 27.8051 15.381 27.9983 15.9999 28ZM26.5899 24C26.5447 23.9581 26.5045 23.9111 26.4699 23.86L24.7199 21.34C24.2531 20.6712 24.0019 19.8756 23.9999 19.06V12C23.9999 9.87827 23.1571 7.84344 21.6568 6.34315C20.1565 4.84285 18.1217 4 15.9999 4C13.8782 4 11.8434 4.84285 10.3431 6.34315C8.84278 7.84344 7.99992 9.87827 7.99992 12V19.06C7.99799 19.8756 7.74677 20.6712 7.27992 21.34L5.52992 23.86C5.49538 23.9111 5.45512 23.9581 5.40992 24H26.5899Z" fill="#46474C"/>
</svg>
