<svg width="32" height="32" viewBox="0 0 32 32" fill="none" xmlns="http://www.w3.org/2000/svg">
<g clip-path="url(#clip0_121_33)">
<mask id="mask0_121_33" style="mask-type:luminance" maskUnits="userSpaceOnUse" x="0" y="0" width="32" height="32">
<path d="M0 9.34601e-05H31.9999V32H0V9.34601e-05Z" fill="white"/>
</mask>
<g mask="url(#mask0_121_33)">
<path d="M19.0124 4.33014C20.1037 4.61187 21.1499 5.0461 22.1199 5.62002L23.1004 4.63939C23.2869 4.45279 23.5083 4.30478 23.752 4.20381C23.9958 4.10284 24.257 4.0509 24.5208 4.05096C24.7845 4.05096 25.0457 4.10292 25.2893 4.20389C25.5329 4.30486 25.7543 4.45284 25.9407 4.63939L27.3605 6.05933C27.5471 6.24572 27.6951 6.46707 27.7961 6.7107C27.897 6.95433 27.949 7.21547 27.949 7.4792C27.9491 7.74301 27.8971 8.00424 27.7962 8.24796C27.6952 8.49168 27.5472 8.7131 27.3605 8.89957L26.38 9.88013C26.9539 10.8502 27.3881 11.8963 27.6699 12.9876H29.054C30.1632 12.9876 31.0624 13.8868 31.0624 14.9959V17.0042C31.0624 18.1133 30.1632 19.0125 29.054 19.0125H27.6699C27.3881 20.1038 26.9539 21.1499 26.38 22.1199L27.3605 23.1005C27.5472 23.2869 27.6952 23.5084 27.7962 23.7521C27.8971 23.9958 27.9491 24.2571 27.949 24.5209C27.949 24.7846 27.897 25.0458 27.7961 25.2894C27.6951 25.533 27.5471 25.7544 27.3605 25.9408L25.9407 27.3606C25.7543 27.5472 25.5329 27.6952 25.2893 27.7962C25.0457 27.8971 24.7845 27.9491 24.5208 27.9491C24.257 27.9491 23.9957 27.8972 23.752 27.7962C23.5083 27.6953 23.2868 27.5473 23.1004 27.3606L22.1199 26.3801C21.1499 26.954 20.1037 27.3882 19.0124 27.6699V29.0541C19.0124 30.1633 18.1132 31.0625 17.0041 31.0625H14.9958C13.8866 31.0625 12.9875 30.1633 12.9875 29.0541V27.6699C11.8962 27.3882 10.8501 26.954 9.88004 26.3801L8.89948 27.3606C8.71301 27.5472 8.49158 27.6953 8.24786 27.7962C8.00415 27.8972 7.74291 27.9491 7.47911 27.9491C7.21538 27.9491 6.95423 27.8971 6.7106 27.7962C6.46697 27.6952 6.24563 27.5472 6.05924 27.3606L4.6393 25.9408C4.45275 25.7544 4.30476 25.533 4.20379 25.2894C4.10282 25.0458 4.05086 24.7846 4.05087 24.5209C4.05081 24.2571 4.10275 23.9958 4.20372 23.7521C4.30468 23.5084 4.4527 23.2869 4.6393 23.1005L5.61992 22.1199C5.04602 21.1499 4.61179 20.1038 4.33005 19.0125H2.94587C1.83675 19.0125 0.9375 18.1133 0.9375 17.0042V14.9959C0.9375 13.8868 1.83675 12.9876 2.94587 12.9876H4.33005C4.61179 11.8963 5.04602 10.8501 5.61992 9.88013L4.6393 8.89957C4.4527 8.7131 4.30468 8.49167 4.20371 8.24795C4.10274 8.00423 4.0508 7.743 4.05087 7.4792C4.05086 7.21547 4.10282 6.95434 4.20379 6.71071C4.30476 6.46708 4.45275 6.24573 4.6393 6.05933L6.05924 4.63939C6.24564 4.45283 6.46698 4.30484 6.71061 4.20387C6.95424 4.1029 7.21538 4.05094 7.47911 4.05096C7.74291 4.0509 8.00414 4.10284 8.24786 4.20381C8.49157 4.30478 8.713 4.45279 8.89948 4.63939L9.88004 5.62002C10.8501 5.0461 11.8962 4.61187 12.9875 4.33014V2.9459C12.9875 1.83678 13.8866 0.937592 14.9958 0.937592H17.0041C18.1132 0.937592 19.0124 1.83678 19.0124 2.9459V4.33014Z" stroke="#46474C" stroke-width="2" stroke-miterlimit="10" stroke-linecap="round" stroke-linejoin="round"/>
<path d="M15.9998 9.97506C19.3251 9.97506 22.0248 12.6747 22.0248 16C22.0248 19.3253 19.3251 22.025 15.9998 22.025C12.6745 22.025 9.97485 19.3253 9.97485 16C9.97485 12.6747 12.6745 9.97506 15.9998 9.97506Z" stroke="#46474C" stroke-width="2" stroke-miterlimit="10" stroke-linecap="round" stroke-linejoin="round"/>
</g>
</g>
<defs>
<clipPath id="clip0_121_33">
<rect width="32" height="32" fill="white"/>
</clipPath>
</defs>
</svg>
